HIERARCHY
ROOT Hips
{
     OFFSET -101.56600 96.65470 88.92410
     CHANNELS 6 Xposition Yposition Zposition Zrotation Xrotation Yrotation
     JOINT Spine
     {
          OFFSET -0.00000 11.89050 -0.00000
          CHANNELS 3 Zrotation Xrotation Yrotation
          JOINT Spine1
          {
               OFFSET -0.00000 25.65740 0.12766
               CHANNELS 3 Zrotation Xrotation Yrotation
               JOINT HEad
               {
                    OFFSET -0.00000 8.73416 0.01134
                    CHANNELS 3 Zrotation Xrotation Yrotation
                    End Site
                    {
                         OFFSET -0.29000 12.77420 2.51395
                    }
               }
               JOINT LeftShoulder1
               {
                    OFFSET 8.99000 -0.36225 -0.22000
                    CHANNELS 3 Zrotation Xrotation Yrotation
                    JOINT LeftArm
                    {
                         OFFSET 10.28270 -0.00338 0.32212
                         CHANNELS 3 Zrotation Xrotation Yrotation
                         JOINT LeftForeArm
                         {
                              OFFSET 32.76690 0.09914 -1.42434
                              CHANNELS 3 Zrotation Xrotation Yrotation
                              JOINT LeftHand
                              {
                                   OFFSET 27.56430 0.08536 1.02216
                                   CHANNELS 3 Zrotation Xrotation Yrotation
                                   End Site
                                   {
                                        OFFSET 16.74430 -0.60000 1.50291
                                   }
                              }
                         }
                    }
               }
               JOINT RightShoulder
               {
                    OFFSET -8.99000 -0.36225 -0.22000
                    CHANNELS 3 Zrotation Xrotation Yrotation
                    JOINT RightArm
                    {
                         OFFSET -10.28270 -0.00338 0.32212
                         CHANNELS 3 Zrotation Xrotation Yrotation
                         JOINT RightForeArm
                         {
                              OFFSET -32.89710 0.09914 -1.42434
                              CHANNELS 3 Zrotation Xrotation Yrotation
                              JOINT RightHand
                              {
                                   OFFSET -27.49210 0.08536 1.02216
                                   CHANNELS 3 Zrotation Xrotation Yrotation
                                   End Site
                                   {
                                        OFFSET -16.63120 -0.60000 1.50291
                                   }
                              }
                         }
                    }
               }
          }
     }
     JOINT LeftUpLeg
     {
          OFFSET 8.94580 -8.66707 0.10165
          CHANNELS 3 Zrotation Xrotation Yrotation
          JOINT LeftLeg
          {
               OFFSET 0.00000 -44.42270 1.37270
               CHANNELS 3 Zrotation Xrotation Yrotation
               JOINT LeftFoot
               {
                    OFFSET -0.25355 -42.09240 -1.46059
                    CHANNELS 3 Zrotation Xrotation Yrotation
                    JOINT LeftToes
                    {
                         OFFSET -0.04000 -4.41509 8.49910
                         CHANNELS 3 Zrotation Xrotation Yrotation
                         End Site
                         {
                              OFFSET 0.08000 -0.04745 9.77979
                         }
                    }
               }
          }
     }
     JOINT RightUpLeg
     {
          OFFSET -8.94580 -8.66707 0.10165
          CHANNELS 3 Zrotation Xrotation Yrotation
          JOINT RightLeg
          {
               OFFSET 0.00000 -44.42270 1.37270
               CHANNELS 3 Zrotation Xrotation Yrotation
               JOINT RightFoot
               {
                    OFFSET 0.25355 -42.09240 -1.46059
                    CHANNELS 3 Zrotation Xrotation Yrotation
                    JOINT RightToes
                    {
                         OFFSET 0.04000 -4.41509 8.49910
                         CHANNELS 3 Zrotation Xrotation Yrotation
                         End Site
                         {
                              OFFSET -0.08000 -0.13745 9.77979
                         }
                    }
               }
          }
     }
}
MOTION
Frames: 12
Frame Time: 0.01667
-101.56600 96.65470 88.92410 2.01697 3.48188 81.38950 2.02728 4.36601 4.06237 -0.87213 9.12522 8.32013 -12.04340 2.55151 35.22300 -0.00000 -0.00000 0.00000 -82.51770 -56.03260 -73.40870 -17.35440 29.10670 -77.77200 5.55594 9.67997 -0.87718 20.90050 1.82768 5.54451 41.76390 -15.36440 67.36940 11.63500 24.59910 85.90980 -5.55712 9.68432 0.87760 10.23800 -10.64420 -1.12391 7.37039 6.36252 -21.82970 -22.82690 -3.00919 0.94340 0.28805 -2.85981 -1.04452 -10.19230 2.16967 -1.98296 -3.74423 26.69080 11.32520 2.56177 -25.52060 0.12159 -1.66925 -1.81894 1.59202 
-101.92300 96.71490 89.51670 1.77903 3.42401 81.99920 2.25171 4.16069 3.98827 -0.77996 8.74991 8.16853 -11.89610 3.07415 34.57240 -0.00000 -0.00000 0.00000 -82.26930 -56.24340 -74.40360 -17.11070 28.39230 -77.31970 5.55594 9.67997 -0.87718 20.64470 1.78586 5.43689 41.56260 -15.93090 68.86290 11.28120 23.64230 85.43820 -5.55712 9.68432 0.87760 10.53340 -11.06960 -0.17228 6.67011 7.10624 -17.67590 -23.34770 -1.45853 1.27556 0.45903 -4.96187 -1.76216 -9.56552 1.95921 -2.26014 -3.71975 26.65420 10.77910 1.98654 -25.33500 0.02624 -1.80376 -1.99987 1.59704 
-102.23900 96.78140 90.06250 1.58794 3.32926 82.59750 2.43448 3.96598 3.92134 -0.66697 8.38129 8.03681 -11.71490 3.68490 34.06690 -0.00000 -0.00000 0.00000 -81.98590 -56.26600 -75.32050 -16.84130 27.60470 -76.84510 5.55594 9.67997 -0.87718 20.40720 1.74390 5.32105 41.41350 -16.55970 70.19580 10.94230 22.69940 84.95590 -5.55712 9.68432 0.87760 10.78310 -11.59680 1.11869 5.99708 8.52297 -14.48690 -23.33180 -0.96169 1.37381 0.53362 -6.06239 -2.11015 -8.99290 1.83638 -2.47174 -3.54794 26.50840 9.95751 1.17881 -24.60370 -0.10613 -2.56046 -2.91267 1.81914 
-102.51400 96.84680 90.56010 1.46497 3.21223 83.17500 2.57128 3.77934 3.86937 -0.55505 8.01535 7.94114 -11.47950 4.42402 33.91170 -0.00000 -0.00000 0.00000 -81.59120 -56.06950 -76.08950 -16.54180 26.75490 -76.37290 5.55594 9.67997 -0.87718 20.26240 1.71143 5.21862 41.29560 -17.29840 71.29860 10.63820 21.83490 84.50370 -5.55712 9.68432 0.87760 10.97610 -12.13750 2.53990 5.43607 10.34740 -12.86260 -22.95910 -1.57741 1.23033 0.53263 -5.98557 -2.10864 -8.50009 1.80651 -2.58266 -3.23477 26.30500 8.90792 0.39103 -23.54820 -0.22340 -3.76725 -4.31714 2.28003 
-102.74200 96.90650 91.00900 1.40591 3.09169 83.72770 2.66092 3.59417 3.83623 -0.47182 7.64273 7.88647 -11.17580 5.23834 34.05590 -0.00000 -0.00000 0.00000 -81.12300 -55.65730 -76.74410 -16.23260 25.90860 -75.93370 5.55594 9.67997 -0.87718 20.30640 1.70088 5.15916 41.19000 -18.21760 72.12110 10.40190 21.14740 84.13640 -5.55712 9.68432 0.87760 11.10910 -12.58260 3.83165 5.01948 12.13950 -12.62790 -22.35270 -2.76976 0.96914 0.49988 -5.30848 -1.96369 -8.06953 1.84812 -2.59395 -2.87526 26.10600 7.76426 -0.17001 -22.48880 -0.29484 -5.06456 -5.78893 2.87593 
-102.92400 96.97160 91.41800 1.38588 2.99880 84.25470 2.68247 3.41028 3.81863 -0.43369 7.26482 7.85954 -10.83500 6.01442 34.23370 -0.00000 -0.00000 0.00000 -80.68950 -55.08020 -77.36980 -15.94360 25.14610 -75.55780 5.55594 9.67997 -0.87718 20.54300 1.71240 5.14341 41.16130 -19.32170 72.67040 10.27750 20.75860 83.90050 -5.55712 9.68432 0.87760 11.16360 -12.82810 4.78051 4.73899 13.40990 -13.09710 -21.53060 -3.80055 0.74316 0.46528 -4.72076 -1.81182 -7.67541 1.93914 -2.52644 -2.57571 25.92000 6.69143 -0.40918 -21.69840 -0.31832 -6.05870 -6.88237 3.43278 
-103.06800 97.05670 91.79570 1.38595 2.95047 84.74410 2.62163 3.23223 3.80858 -0.42745 6.89170 7.83689 -10.51040 6.67596 34.25050 -0.00000 -0.00000 0.00000 -80.34340 -54.43430 -77.98920 -15.69190 24.51710 -75.27190 5.55594 9.67997 -0.87718 20.85990 1.73328 5.14637 41.33330 -20.51180 72.99710 10.29210 20.74740 83.82560 -5.55712 9.68432 0.87760 11.13120 -12.81840 5.31775 4.59113 13.85290 -13.66350 -20.58410 -4.25126 0.63098 0.42333 -4.39345 -1.61073 -7.31046 2.07894 -2.38528 -2.36105 25.70650 5.78460 -0.36688 -21.27930 -0.30865 -6.53399 -7.36129 3.81059 
-103.17300 97.15350 92.13700 1.40179 2.93341 85.17620 2.51134 3.05631 3.79661 -0.42898 6.52046 7.79980 -10.22100 7.23011 34.13950 -0.00000 -0.00000 0.00000 -80.04960 -53.82790 -78.55140 -15.48960 24.04810 -75.09110 5.55594 9.67997 -0.87718 21.15710 1.75516 5.15884 41.77960 -21.67950 73.12870 10.44660 21.11940 83.93560 -5.55712 9.68432 0.87760 11.04940 -12.57690 5.51097 4.57140 13.50160 -14.07180 -19.74690 -4.16148 0.62033 0.36387 -4.03658 -1.32651 -6.98516 2.26566 -2.16382 -2.18231 25.46490 5.04920 -0.16473 -21.21830 -0.28337 -6.48680 -7.23393 3.95522 
-103.23200 97.24120 92.43090 1.42620 2.92700 85.53790 2.40167 2.87176 3.77747 -0.43737 6.13569 7.74464 -9.92618 7.72087 34.00850 -0.00000 -0.00000 0.00000 -79.75860 -53.32790 -79.01170 -15.35800 23.76720 -75.01340 5.55594 9.67997 -0.87718 21.45280 1.78517 5.20581 42.45400 -22.81140 73.04850 10.73350 21.83740 84.24820 -5.55712 9.68432 0.87760 10.98310 -12.16680 5.46382 4.62166 12.60660 -14.27900 -19.22500 -3.79140 0.66435 0.29086 -3.38106 -1.01026 -6.71237 2.48670 -1.88651 -2.00282 25.21770 4.45547 0.09549 -21.43620 -0.25297 -6.06950 -6.67752 3.92434 
-103.23500 97.30520 92.66890 1.44732 2.92463 85.81960 2.31654 2.67570 3.75537 -0.47100 5.73396 7.68671 -9.56665 8.16522 33.80820 -0.00000 -0.00000 0.00000 -79.48290 -52.93730 -79.37670 -15.32240 23.71120 -75.03170 5.55594 9.67997 -0.87718 21.84860 1.83844 5.32160 43.21900 -23.98050 72.73950 11.15050 22.85970 84.75610 -5.55712 9.68432 0.87760 10.98340 -11.66690 5.23209 4.62704 11.49940 -14.26800 -19.00810 -3.41538 0.71746 0.20443 -2.40656 -0.67850 -6.50525 2.72770 -1.58818 -1.82233 24.97180 3.95296 0.36375 -21.79400 -0.22101 -5.53322 -5.96907 3.86461 
-103.18100 97.34420 92.85010 1.46343 2.92420 86.01570 2.24855 2.47909 3.74043 -0.52842 5.33413 7.64880 -9.13157 8.55449 33.35710 -0.00000 -0.00000 0.00000 -79.28300 -52.62340 -79.66010 -15.39660 23.91360 -75.15000 5.55594 9.67997 -0.87718 22.41690 1.92295 5.51426 43.93330 -25.27040 72.20550 11.70210 24.16450 85.42510 -5.55712 9.68432 0.87760 11.07430 -11.15860 4.81825 4.47991 10.48730 -14.01300 -18.87490 -3.22719 0.74250 0.09390 -1.22660 -0.28264 -6.36513 2.98935 -1.28086 -1.64771 24.70860 3.48406 0.60984 -22.13770 -0.19015 -5.10752 -5.36135 3.90888 
-103.08500 97.36910 92.98190 1.48564 2.91836 86.14250 2.17865 2.30032 3.73565 -0.57390 4.96775 7.63506 -8.69547 8.87466 32.57970 -0.00000 -0.00000 0.00000 -79.21290 -52.36760 -79.84030 -15.58050 24.39240 -75.38190 5.55594 9.67997 -0.87718 23.11890 2.03002 5.75115 44.54560 -26.71020 71.46340 12.39640 25.75340 86.22390 -5.55712 9.68432 0.87760 11.24090 -10.70250 4.23479 4.16153 9.74516 -13.54530 -18.58500 -3.29549 0.72022 -0.05153 0.05656 0.22094 -6.27080 3.28806 -0.97951 -1.48696 24.39630 3.03119 0.80561 -22.36990 -0.16451 -4.87236 -4.95719 4.07140 
